<svg xmlns="http://www.w3.org/2000/svg" xmlns:xlink="http://www.w3.org/1999/xlink" width="252" height="164" viewBox="0 0 252 164">
    <defs>
        <path id="b" d="M1.733 1.469V.167H.737V1.47h.996z"/>
        <path id="d" d="M.19.302h1.576V.055H.19v.247z"/>
        <path id="f" d="M.583 1.302h1.299V.806H.583v.496z"/>
        <path id="h" d="M.006 1.302H3.18v-.48H.006z"/>
        <path id="j" d="M.71 1.302h1.3V.46H.71v.84z"/>
        <path id="a" d="M0 0h35v53H0z"/>
        <mask id="l" width="35" height="53" x="0" y="0" fill="#fff">
            <use xlink:href="#a"/>
        </mask>
    </defs>
    <g fill="none" fill-rule="evenodd">
        <path fill="#149AA8" d="M211.373 69.733l-7.031-15.183-.182 5.98-15.383 2.947-.43 22.069 15.365-3.512-.123 5.94zM188.346 38.062l7.03 15.185.183-5.981 15.382-2.948.431-22.069-15.365 3.513.123-5.941z"/>
        <path stroke="#FFF" stroke-linecap="round" stroke-linejoin="round" stroke-width=".5" d="M230.367 53.085l5.616.134M235.813 66.532l.143-.034M230.031 66.354l5.595.2M230.287 56.784l-.146.028"/>
        <path stroke="#FFF" stroke-linecap="round" stroke-linejoin="round" stroke-width=".65" d="M245.777 77.043l.315-.106M220.07 75.952l25.457 1.127"/>
        <path stroke="#FFF" stroke-linecap="round" stroke-linejoin="round" stroke-width=".5" d="M221.375 33.146l-.36.016"/>
        <path stroke="#FFF" stroke-linecap="round" stroke-linejoin="round" stroke-width=".65" d="M220.355 33.849l-.927 41.4"/>
        <path stroke="#FFF" stroke-linecap="round" stroke-linejoin="round" stroke-width=".5" d="M236.379 53.102a5.829 5.829 0 0 0 1.514-8.088 5.798 5.798 0 0 0-1.262-1.333M236.237 52.965a5.654 5.654 0 0 0 .245-9.139M230.67 45.539l1.01.017M230.588 48.837l.082-3.298M231.597 48.857l-1.009-.02M231.68 45.555l-.082 3.301M234.883 48.66l.074-2.789M235.9 48.681l-1.017-.022M235.974 45.89l-.074 2.792M234.956 45.872l1.018.018M234.235 51.397a1.068 1.068 0 0 0-1.02-1.111 1.068 1.068 0 0 0-1.108 1.022v.041M232.08 52.442l.026-1.093M234.206 52.492l-2.127-.05M234.235 51.397l-.029 1.095M230.039 52.82a.48.48 0 0 0 .287.1M230.267 43.732a5.657 5.657 0 0 0-.228 9.087M230.56 43.642a.518.518 0 0 0-.293.089M236.191 43.728l-5.631-.085M236.483 43.827a.491.491 0 0 0-.292-.1M235.943 53.054a.507.507 0 0 0 .294-.089M230.325 52.92l5.617.134M236.631 43.68a.66.66 0 0 0-.387-.133M230.615 43.463l5.63.084M235.974 45.89l-.127.166M235.848 46.056l-.68-.013M234.956 45.872l.212.172M235.783 48.497l.118.185M235.783 48.497l.065-2.44M235.105 48.483l.677.014M235.105 48.483l-.222.177M235.168 46.044l-.064 2.439M235.105 48.483l.141-.021M235.311 46.046l-.065 2.416M235.247 48.462l.536.01M235.986 53.219a.668.668 0 0 0 .393-.117M235.983 53.219h.003"/>
        <path stroke="#FFF" stroke-linecap="round" stroke-linejoin="round" stroke-width=".5" d="M234.113 51.385a.896.896 0 0 0-1.79-.075v.037M234.206 52.492l-.117-.188M234.089 52.305l.025-.92M233.101 50.466a.918.918 0 0 0-.63.857M232.301 52.265l-.222.178M232.301 52.265l1.788.04M232.301 52.265l.145-.023M232.447 52.243l1.644.036M231.68 45.555l-.122.167M231.558 45.722l-.675-.012M230.883 45.71l-.213-.171M231.597 48.857l-.114-.185M231.483 48.672l.075-2.95M230.615 43.463a.666.666 0 0 0-.391.12M230.883 45.71l-.075 2.95M230.809 48.66l-.221.178M230.224 43.583a5.827 5.827 0 0 0-.235 9.369M230.809 48.66l.675.012M232.324 51.346l-.023.92M230.809 48.66l.146-.019M231.03 45.712l-.075 2.93M232.47 51.324l-.024.919M230.956 48.642l.527.009M229.99 52.952c.11.083.242.131.38.134M231.08 45.713l-.077 2.929M235.36 46.046l-.064 2.417M232.447 52.234h.048M232.103 65.513l.048.002M235.006 59.424l-.065 2.385M230.741 59.04l-.074 2.894M236.02 66.44a5.774 5.774 0 0 0 .25-9.353M235.88 66.307a5.601 5.601 0 0 0 .242-9.072M230.333 58.869l1.008.027M230.25 62.142l.082-3.274M231.256 62.174l-1.005-.032M231.341 58.896l-.084 3.278M234.529 62.016l.074-2.767M235.543 62.049l-1.014-.033M235.617 59.28l-.074 2.77M234.602 59.249l1.014.03M233.885 64.726a1.06 1.06 0 1 0-2.12-.106v.034M231.735 65.74l.029-1.085M233.854 65.811l-2.119-.071M233.885 64.726l-.03 1.085M229.705 66.091a.49.49 0 0 0 .286.104M229.931 57.069a5.602 5.602 0 0 0-.226 9.022M230.223 56.984a.491.491 0 0 0-.292.084M235.832 57.134l-5.609-.15M236.123 57.235a.496.496 0 0 0-.291-.101M235.585 66.391a.486.486 0 0 0 .295-.083M229.99 66.195l5.596.196"/>
        <path stroke="#FFF" stroke-linecap="round" stroke-linejoin="round" stroke-width=".5" d="M236.162 66.405l.652-.509.552-.58M236.02 66.44l.142-.035M236.271 57.088a.649.649 0 0 0-.386-.135M235.886 56.952l.142-.029M236.414 57.06a.683.683 0 0 0-.385-.137M230.276 56.8l5.61.152M230.423 56.774l-.147.027M236.029 56.923l-5.605-.149M235.427 61.86l.116.19M235.427 61.86l.063-2.421M235.617 59.28l-.127.158M235.49 59.438l-.677-.02M234.602 59.249l.212.17M234.75 61.84l.676.02M234.75 61.84l-.221.176M234.814 59.42l-.065 2.419M234.75 61.84l.144-.033M234.957 59.422l-.063 2.384M234.894 61.806l.532.018M235.628 66.552a.669.669 0 0 0 .392-.111M235.626 66.554l.002-.002M235.957 66.498a.663.663 0 0 0 .205-.093M233.764 64.71a.896.896 0 0 0-.845-.94.895.895 0 0 0-.938.847v.033M233.854 65.811l-.114-.188M233.74 65.623l.025-.913M232.665 63.806a.903.903 0 0 0-.538.81M231.956 65.56l-.22.18M231.956 65.56l1.784.063M231.956 65.56l.147-.034M232.103 65.525l1.637.058M231.256 62.174l-.113-.19M231.143 61.985l.076-2.93M231.341 58.896l-.123.158M231.218 59.054l-.671-.02M230.547 59.035l-.214-.166M230.276 56.8a.653.653 0 0 0-.387.115M230.547 59.035l-.076 2.929M230.471 61.964l-.22.178M229.89 56.915a5.775 5.775 0 0 0-.236 9.301M230.423 56.774a.53.53 0 0 0-.135.01M230.471 61.964l.673.022M231.981 64.65l-.025.91M230.471 61.964l.147-.03M230.692 59.04l-.074 2.894M232.127 64.615l-.024.91M230.618 61.933l.526.016M229.655 66.216c.109.086.243.134.381.138M247.28 34.027a.512.512 0 0 0-.49-.535c-.006-.002-.011-.002-.017-.002"/>
        <path stroke="#FFF" stroke-linecap="round" stroke-linejoin="round" stroke-width=".5" d="M247.498 34.024a.683.683 0 0 0-.652-.713h-.022M246.022 76.422l1.258-42.395M247.498 34.024l-1.26 42.39M236.72 43.617a.738.738 0 0 0-.425-.144M236.295 43.472l-5.631-.083M230.664 43.388a.728.728 0 0 0-.427.133M230.237 43.52a5.895 5.895 0 0 0-.24 9.48M229.998 53c.121.091.268.145.418.146M230.417 53.146l5.614.133M236.031 53.279a.71.71 0 0 0 .431-.13M236.463 53.15a5.892 5.892 0 0 0 .257-9.533M236.36 57.023a.752.752 0 0 0-.425-.15M235.935 56.872l-5.607-.15M230.328 56.722a.726.726 0 0 0-.427.127M229.9 56.849a5.841 5.841 0 0 0-.237 9.41M229.664 66.26c.12.093.267.146.418.151M230.082 66.411l5.592.197M235.674 66.608a.726.726 0 0 0 .43-.12M236.105 66.488a5.844 5.844 0 0 0 1.541-8.105 5.837 5.837 0 0 0-1.286-1.36M245.492 76.92a.51.51 0 0 0 .53-.487v-.01M220.027 75.796l25.465 1.123M219.547 75.266a.512.512 0 0 0 .48.53M220.477 33.851l-.93 41.414M220.987 33.335a.52.52 0 0 0-.51.516M246.774 33.49l-25.787-.155"/>
        <g transform="translate(246.403 33.13)">
            <mask id="c" fill="#fff">
                <use xlink:href="#b"/>
            </mask>
            <path stroke="#010201" stroke-linecap="round" stroke-linejoin="round" stroke-width=".65" d="M1.408.878a.68.68 0 0 0-.65-.71H.737" mask="url(#c)"/>
        </g>
        <path stroke="#FFF" stroke-linecap="round" stroke-linejoin="round" stroke-width=".5" d="M246.825 33.311l.315-.014"/>
        <path stroke="#FFF" stroke-linecap="round" stroke-linejoin="round" stroke-width=".65" d="M246.552 76.31l1.26-42.302"/>
        <path stroke="#FFF" stroke-linecap="round" stroke-linejoin="round" stroke-width=".5" d="M221.042 33.16l25.782.15"/>
        <path stroke="#FFF" stroke-linecap="round" stroke-linejoin="round" stroke-width=".65" d="M247.14 33.297l-25.737-.152M221.403 33.145l-.36.015"/>
        <path stroke="#FFF" stroke-linecap="round" stroke-linejoin="round" stroke-width=".5" d="M245.858 77.01a.68.68 0 0 0 .38-.58v-.015"/>
        <path stroke="#FFF" stroke-linecap="round" stroke-linejoin="round" stroke-width=".65" d="M245.531 77.077a.66.66 0 0 0 .246-.034M245.527 77.08l.004-.003M246.092 76.937a.68.68 0 0 0 .46-.626"/>
        <path stroke="#FFF" stroke-linecap="round" stroke-linejoin="round" stroke-width=".5" d="M236.054 66.514l-.38.094M235.91 66.508l.144.006M230.294 56.777l-.394.072M230.384 56.723l-.043.024-.047.03"/>
        <path stroke="#FFF" stroke-linecap="round" stroke-linejoin="round" stroke-width=".65" d="M221.042 33.16a.697.697 0 0 0-.686.688"/>
        <path stroke="#FFF" stroke-linecap="round" stroke-linejoin="round" stroke-width=".5" d="M221.375 33.146l.027-.001"/>
        <path stroke="#FFF" stroke-linecap="round" stroke-linejoin="round" stroke-width=".65" d="M219.428 75.25a.683.683 0 0 0 .646.7"/>
        <path fill="#BBBDBF" d="M179.205 65.201c.06-.044.122-.075.166-.12a.601.601 0 0 1-.166.12"/>
        <path fill="#959595" d="M143.99 46.183h.105l34.192 1.224h.06c.166-.03.346 0 .511.061.182.044.362.121.513.211.15.105.287.226.422.347.031.046.06.077.09.122.12.15.197.301.272.484.076.165.12.346.12.528v.211h.015l-.105 5.74-.061 3.777-.09 4.758c.015.484-.166.951-.497 1.299a.74.74 0 0 1-.166.136c-.044.046-.105.076-.166.12-.06.045-.121.092-.18.121l-1.281.695-.618.182-7.218.83-.301.015h-.03l-33.905-1.827c-.15 0-.287-.03-.437-.06a1.534 1.534 0 0 1-.498-.241 3.073 3.073 0 0 1-.406-.349c-.031-.044-.06-.075-.09-.121a2.122 2.122 0 0 1-.272-.483 2.071 2.071 0 0 1-.121-.528v-.211l.075-12.9c.016-.137.016-.272.031-.409.03-.167.09-.333.181-.483.09-.166.21-.317.315-.454.032-.03.046-.046.077-.074.12-.121.256-.228.407-.288.09-.045.196-.105.285-.12l6.374-2.177c.166-.044.303-.074.469-.09h.105l1.823-.046z"/>
        <path stroke="#FFF" stroke-linecap="round" stroke-linejoin="round" stroke-width=".65" d="M169.57 67.043l.333-.01M169.903 67.033l7.218-.837M135.663 65.224l33.907 1.819M135.213 48.492c-.083.026-.197.082-.277.12-.154.07-.292.178-.416.299l-.07.069M134.45 48.98c-.113.14-.226.286-.316.446a1.557 1.557 0 0 0-.177.497c-.02.132-.025.269-.028.404M133.914 50.325l-.068 12.928M141.595 46.32l-6.382 2.172M133.846 63.229c-.005.057.008.145.008.203.001.183.052.362.12.532a1.94 1.94 0 0 0 .356.601M134.33 64.566c.126.126.254.248.4.351.155.108.329.19.51.236.14.034.28.06.423.071M177.736 66.021l1.282-.704M180.269 49.375c.006-.072.013-.143.01-.215a1.547 1.547 0 0 0-.125-.53 2.006 2.006 0 0 0-.272-.481c-.03-.04-.064-.078-.095-.115M179.787 48.034c-.133-.125-.264-.25-.414-.349a2.017 2.017 0 0 0-.51-.22c-.181-.052-.367-.092-.549-.064-.011.002-.023.006-.033.007M180.03 63.653l.154-8.54M180.184 55.111l.102-5.736"/>
        <path stroke="#FFF" stroke-linecap="round" stroke-linejoin="round" stroke-width=".5" d="M178.435 47.402l-34.34-1.214M179.039 65.29c.113-.064.226-.126.323-.208l.091-.085M179.453 64.998c.12-.14.24-.279.334-.437.091-.151.159-.32.19-.492.03-.137.035-.276.043-.416M143.986 46.189l-1.92.049M169.81 51.826a.528.528 0 0 0-.467-.524M171.735 51.774c-.05-1.073-.871-1.988-1.866-2.088M169.609 65.21l.2-13.384M171.735 51.774l-.206 13.37M178.965 49.497c-.028-1.048-.83-1.934-1.82-2.021M178.965 49.497l-7.23 2.277M169.869 49.687l7.276-2.21M169.128 65.687c.261.025.477-.188.48-.469v-.017M135.143 63.905l33.985 1.782M134.703 63.398c.004.264.199.488.44.507M134.775 50.434l-.072 12.964M135.223 49.965c-.245-.02-.446.186-.448.457v.011M169.342 51.302l-34.118-1.337M135.801 48.403l34.067 1.283M178.703 64.364l.262-14.867M171.528 65.144l7.174-.78M177.144 47.476l-34.982-1.238M142.162 46.238l-6.36 2.165M169.57 67.043h.036M177.895 65.93c.503-.32.82-.9.808-1.566"/>
        <path stroke="#FFF" stroke-linecap="round" stroke-linejoin="round" stroke-width=".65" d="M177.12 66.197c.222-.023.43-.082.617-.176"/>
        <path stroke="#FFF" stroke-linecap="round" stroke-linejoin="round" stroke-width=".5" d="M177.144 47.476l1.277-.074M180.228 49.408l-1.263.089M178.703 64.364l1.27-.668"/>
        <path stroke="#FFF" stroke-linecap="round" stroke-linejoin="round" stroke-width=".65" d="M144.08 46.189l-1.919.049M178.421 47.402l-34.34-1.214M142.127 46.237a1.418 1.418 0 0 0-.532.083"/>
        <path stroke="#FFF" stroke-linecap="round" stroke-linejoin="round" stroke-width=".5" d="M178.435 47.402h-.014M144.095 46.189h-.015M169.572 67.028c1.108-.056 1.95-.868 1.957-1.884"/>
        <path stroke="#FFF" stroke-linecap="round" stroke-linejoin="round" stroke-width=".65" d="M179.019 65.317c.193-.094.367-.223.514-.374a1.77 1.77 0 0 0 .497-1.29"/>
        <path stroke="#FFF" stroke-linecap="round" stroke-linejoin="round" stroke-width=".5" d="M42.191 1.224c-.026-.017-.05-.034-.079-.044a.145.145 0 0 0-.048-.012.393.393 0 0 0-.038.003M42.265 1.4a.2.2 0 0 0 .001-.04c-.001-.022-.01-.041-.02-.062a.211.211 0 0 0-.036-.055l-.019-.02M41.278 155.823L42.27 1.399M39.979 156.292l1.124-.248M41.07 156.047c.024-.004.046-.007.067-.015.02-.009.039-.02.058-.035M11.654 1.566c-.006 0-.014 0-.013-.003M11.57 1.72l-.546 151.515M11.025 153.234c.003.027.005.056.015.082a.194.194 0 0 0 .028.053.286.286 0 0 0 .04.04c.015.012.032.02.048.03"/>
        <g transform="translate(57.832 162.987)">
            <mask id="e" fill="#fff">
                <use xlink:href="#d"/>
            </mask>
            <path stroke="#FFF" stroke-linecap="round" stroke-linejoin="round" stroke-width=".5" d="M.19.055l.12.013a16.214 16.214 0 0 0 1.456.07" mask="url(#e)"/>
        </g>
        <path stroke="#FFF" stroke-linecap="round" stroke-linejoin="round" stroke-width=".5" d="M3.03 157.408l54.992 5.635M62.736 162.794l42.988-15.071M19.6 154.282l-.095 1.571M19.51 155.76c0 .007 0 .015-.003.024-.001.008-.007.018-.012.03-.006.012-.013.025-.023.033l-.003.002M2.753 154.035l-1.399 1.277M1.238 155.536l-.076 1M1.173 156.542c.001.07.001.14.02.2.023.079.075.143.128.192.075.07.15.117.236.158.099.045.212.086.34.122.134.038.286.07.454.102a6.925 6.925 0 0 0 .688.09M3.103 153.874l-.09.025a.672.672 0 0 0-.154.063c-.033.02-.062.044-.094.066M3.837 154.333l-.077-.007c-.068-.007-.128-.016-.19-.025M11.03 151.637l-7.937 2.238M106.034 146.064l-1.262-1.183M106.195 147.195l-.052-.912M105.764 147.7c.127-.07.252-.14.324-.223.074-.085.09-.182.107-.281M103.593 144.6l-14.96-1.297M88.464 143.127l-.087-1.997M95.395 138.845L96.918 5.5M40.906 1.163a.096.096 0 0 0-.077.065M41.106 1.393c-.001-.013-.001-.025-.003-.035a.227.227 0 0 0-.013-.05.24.24 0 0 0-.019-.045.213.213 0 0 0-.026-.034.186.186 0 0 0-.139-.066M41.106 1.393a3.876 3.876 0 0 0-.309-.007M40.83 1.228a.37.37 0 0 0-.033.159M39.825 156.103l.972-154.716M40.13 156.089l.976-154.697M39.994 156.107a.674.674 0 0 0 .135-.019M39.825 156.103c.056.005.113.006.17.004M40.797 1.387l-29.115.332M11.792 1.499a.061.061 0 0 0-.041.016.095.095 0 0 0-.018.021M40.906 1.163l-29.114.336M11.132 153.266l28.694 2.837M11.682 1.718l-.55 151.548M42.177 1.233a.184.184 0 0 0-.138-.067M42.237 1.396a.246.246 0 0 0-.06-.163M42.237 1.396l-1.13-.003M40.906 1.163l1.132.004M40.13 156.089l1.116-.246M41.247 155.842l.99-154.446M40.13 156.089a.23.23 0 0 1-.061.153.17.17 0 0 1-.14.052"/>
        <path stroke="#FFF" stroke-linecap="round" stroke-linejoin="round" stroke-width=".5" d="M39.93 156.295c-.028.006-.056-.01-.076-.046a.338.338 0 0 1-.028-.146M11.242 153.455l28.688 2.84M11.164 153.41c.02.034.049.051.079.045M11.132 153.266c0 .057.011.109.03.144M41.186 155.995a.23.23 0 0 0 .06-.153M41.048 156.047a.168.168 0 0 0 .137-.052M11.792 1.499a.183.183 0 0 0-.137.067M88.444 143.103l.005.035a.155.155 0 0 0 .013.042c.007.014.013.03.024.043a.23.23 0 0 0 .087.07c.017.006.036.008.054.012"/>
        <path stroke="#FFF" stroke-linecap="round" stroke-linejoin="round" stroke-width=".5" d="M88.62 143.308a.201.201 0 0 1-.123-.066.232.232 0 0 1-.053-.138M57.884 162.703l.155.016c.052.004.105.01.158.012l.16.011.16.01.163.01.164.008.165.006.165.005c.054.002.109.003.163.003l.164.001c.054.002.109.002.163.002h.163c.053 0 .106 0 .16-.002l.158-.001c.053-.001.105-.001.157-.004l.154-.004.154-.006.149-.007c.099-.005.196-.011.292-.018l.287-.02.278-.028.266-.03c.087-.012.171-.024.252-.037.082-.011.16-.026.235-.039a5.676 5.676 0 0 0 .41-.09l.17-.053M57.869 161.675l.134.01.135.008.136.008c.047.001.094.004.14.007l.14.006.252.01c.158.004.316.007.476.008a23.787 23.787 0 0 0 2.065-.066c.098-.01.191-.017.284-.025a13.042 13.042 0 0 0 .518-.062c.079-.01.155-.024.23-.035a4.29 4.29 0 0 0 .208-.04 3.69 3.69 0 0 0 .185-.04c.057-.014.109-.028.16-.043M58.577 159.913c.037.004.075.008.112.01.038.005.077.007.116.011l.117.007.12.006.12.007.122.005c.04.001.08.003.124.003l.122.002.122.001h.245l.12-.003.119-.004.117-.006c.039 0 .078-.003.115-.006l.113-.005c.037-.003.073-.005.11-.01a3.006 3.006 0 0 0 .21-.019c.033-.004.067-.006.098-.012l.096-.011c.032-.003.062-.008.093-.012l.085-.014.082-.015.078-.015c.026-.004.05-.01.073-.016l.066-.017a.6.6 0 0 0 .062-.018.366.366 0 0 0 .057-.017"/>
        <path stroke="#FFF" stroke-linecap="round" stroke-linejoin="round" stroke-width=".5" d="M62.874 161.263l-.068.02a4.356 4.356 0 0 1-.323.071c-.077.016-.158.03-.244.043l-.259.037c-.081.011-.163.02-.25.03a18.828 18.828 0 0 1-2.127.107l-.315-.003a15.719 15.719 0 0 1-.352-.007 13.433 13.433 0 0 1-.909-.04l-.129-.01M57.898 161.512a.454.454 0 0 0-.028.163M62.874 161.263c.036.043.058.1.06.158"/>
        <g transform="translate(62.026 161.987)">
            <mask id="g" fill="#fff">
                <use xlink:href="#f"/>
            </mask>
            <path stroke="#FFF" stroke-linecap="round" stroke-linejoin="round" stroke-width=".5" d="M.71.806C.692.81.673.817.65.82A.385.385 0 0 1 .584.82" mask="url(#g)"/>
        </g>
        <g transform="translate(59.43 161.987)">
            <mask id="i" fill="#fff">
                <use xlink:href="#h"/>
            </mask>
            <path stroke="#FFF" stroke-linecap="round" stroke-linejoin="round" stroke-width=".5" d="M.006 1.127c.406 0 .814.001 1.203-.015a10.36 10.36 0 0 0 1.155-.11c.324-.05.57-.117.816-.18" mask="url(#i)"/>
        </g>
        <path stroke="#FFF" stroke-linecap="round" stroke-linejoin="round" stroke-width=".5" d="M58.054 163.038c-.047.017-.093-.01-.126-.073a.571.571 0 0 1-.044-.262M40.152 159.877c-.015-.003-.03-.004-.045-.008a.39.39 0 0 1-.08-.034.233.233 0 0 1-.064-.059.304.304 0 0 1-.053-.101c-.012-.042-.015-.087-.017-.13M40.152 159.877a58127.9 58127.9 0 0 1 17.718 1.798M2.882 157.081l55.002 5.623M2.956 156.1c5.55.565 11.144 1.131 16.785 1.705"/>
        <path stroke="#FFF" stroke-linecap="round" stroke-linejoin="round" stroke-width=".5" d="M19.74 157.805l.042.001a.176.176 0 0 0 .037-.004l.032-.009a.221.221 0 0 0 .134-.134.45.45 0 0 0 .018-.055c.005-.024.006-.048.009-.074M40.188 159.716l17.71 1.797M42.042 158.257l16.534 1.656M40.188 159.716a.439.439 0 0 0-.035.16M2.882 157.081a.5.5 0 0 0 .052.252c.035.06.086.087.138.072M58.649 159.828c-.028.01-.054.04-.073.085M58.649 159.828l.106.01.108.01.109.008c.036 0 .075.002.112.005l.114.005c.038.003.077.004.115.005a8.506 8.506 0 0 0 .526.005 9.962 9.962 0 0 0 .776-.037c.118-.01.23-.025.335-.038l.15-.025.134-.027c.041-.008.082-.018.118-.027.035-.01.069-.023.101-.032M61.454 159.69c.05.005.1.032.137.075M3.155 153.868l-.057.017c-.018.007-.034.01-.05.017a.766.766 0 0 0-.045.018c-.016.007-.029.012-.039.018a.397.397 0 0 0-.083.056c-.02.023-.029.046-.023.067.003.023.022.045.053.066.03.022.072.043.127.064a2.61 2.61 0 0 0 .323.083c.043.007.09.016.138.022l.15.023.164.016M103.573 144.6l-14.947-1.294M104.517 145l.04-.015.034-.014.028-.015a.182.182 0 0 0 .023-.016l.016-.016a.061.061 0 0 0 .011-.015.065.065 0 0 0 .005-.017c.003-.02-.006-.038-.027-.057a.336.336 0 0 0-.099-.056 1.101 1.101 0 0 0-.163-.054 2.649 2.649 0 0 0-.222-.05l-.134-.021c-.044-.007-.092-.012-.141-.019a4.16 4.16 0 0 0-.154-.018l-.162-.017M61.454 159.69L104.517 145M42.228 158.183l16.42 1.646M42.23 158.18l-.003.001v.001l.001.002M19.343 155.892l.01-.003M3.813 154.336l15.53 1.555"/>
        <path stroke="#FFF" stroke-linecap="round" stroke-linejoin="round" stroke-width=".5" d="M42.228 158.183l-.017.006-.022.007-.03.012c-.011.003-.022.008-.033.013-.013.005-.028.01-.04.017-.014.005-.03.013-.045.02M62.874 161.263l42.934-14.882M61.592 159.765l43.05-14.7M62.949 162.448l42.969-15.033M62.933 161.42l42.932-14.9M105.81 146.381a.225.225 0 0 1 .055.138M104.517 145a.189.189 0 0 1 .126.066M42.042 158.257c-.017-.018-.04-.042-.064-.071a2.434 2.434 0 0 1-.069-.093M40.188 159.716c-.052.01-.103.004-.126-.028-.022-.034-.017-.089 0-.142M40.062 159.546c-.054.003-.12.001-.17-.001M41.91 158.093l.028-.043c.01-.012.019-.023.026-.035a.378.378 0 0 0 .022-.025c.01-.01.02-.02.029-.027.01-.007.02-.01.027-.016"/>
        <path stroke="#FFF" stroke-linecap="round" stroke-linejoin="round" stroke-width=".5" d="M42.23 158.18a.205.205 0 0 1-.132-.078.276.276 0 0 1-.057-.155M19.91 157.505a.314.314 0 0 0 .101.026M19.512 155.851a.18.18 0 0 1-.045.076.314.314 0 0 1-.09.058M19.91 157.505l-.001.036a.201.201 0 0 1-.005.04.17.17 0 0 1-.016.034c-.004.007-.006.013-.012.019l-.016.013a.082.082 0 0 1-.059.009.152.152 0 0 1-.026-.01M19.74 157.805a.46.46 0 0 1 .035-.158M3.734 154.417l15.643 1.567M2.996 155.945l16.78 1.703M2.996 155.945a.401.401 0 0 0-.04.155M19.512 155.762v.088M19.376 155.984l-.02-.023c-.006-.007-.01-.013-.013-.02a.12.12 0 0 1-.01-.018.034.034 0 0 1 0-.02.05.05 0 0 1 .01-.011M19.512 155.794a.342.342 0 0 1-.031.048.148.148 0 0 1-.066.04.325.325 0 0 1-.072.01M3.813 154.336c-.027.009-.057.038-.08.08"/>
        <path stroke="#FFF" stroke-linecap="round" stroke-linejoin="round" stroke-width=".5" d="M19.352 155.89c.025 0 .05 0 .072-.01.01-.005.022-.014.033-.022M2.995 155.945l-.016-.001-.13-.018a7.431 7.431 0 0 1-.351-.056 5.069 5.069 0 0 1-.304-.059 3.834 3.834 0 0 1-.217-.05 2.447 2.447 0 0 1-.177-.049 2.173 2.173 0 0 1-.245-.087.917.917 0 0 1-.154-.085.34.34 0 0 1-.063-.057c-.02-.027-.032-.053-.03-.08.002-.033.03-.067.056-.1"/>
        <path stroke="#FFF" stroke-linecap="round" stroke-linejoin="round" stroke-width=".5" d="M1.312 155.442c-.013.005-.024.009-.032.014-.048.025-.014.055.02.083M3.155 153.868a.164.164 0 0 0-.129.046M106.022 146.056l.024.02c.037.032.041.067.031.102a.26.26 0 0 1-.031.059.36.36 0 0 1-.104.08c-.038.023-.086.042-.133.064M106.143 146.295l-.12-.11M103.573 144.6c.02-.006.04.007.054.036M88.581 143.332l.02-.012c.007-.002.011-.005.015-.007l.012-.006.005-.004-.006.002M88.627 143.305a.205.205 0 0 1-.128-.065.233.233 0 0 1-.055-.136"/>
        <path stroke="#FFF" stroke-linecap="round" stroke-linejoin="round" stroke-width=".5" d="M88.444 143.103h.01c.003.002.006.003.007.007a.095.095 0 0 1 .003.039l-.008.04M42.197 1.23l-.016.029a.555.555 0 0 0-.012.035l-.005.033-.005.036-.001.035M42.432 1.402a2.564 2.564 0 0 0-.1-.003M42.432 1.402l-.014-.022a.084.084 0 0 1-.014-.021l-.017-.022a.272.272 0 0 0-.026-.029.24.24 0 0 0-.165-.08M41.475 155.723a.404.404 0 0 1-.035.066M41.475 155.723l.993-154.26M42.432 1.402c.015.02.026.04.035.062M42.468 1.464l54.431 4.18M96.903 5.504a.055.055 0 0 1 .008.018.086.086 0 0 1 .005.02l.001.024c0 .01-.001.02-.004.031-.002.016-.009.032-.014.046M96.903 5.504l-.026-.024a.186.186 0 0 0-.058-.026.141.141 0 0 0-.034-.004M96.785 5.45L42.196 1.23M95.378 138.807l-53.903 16.916M96.9 5.644l-1.523 133.164M41.168 155.795c0 .013 0 .026.002.038 0 .012.002.023.003.034l.007.028.008.024a.212.212 0 0 0 .007.017l.008.015M41.204 155.951h.032a.166.166 0 0 0 .035-.007c.013-.004.024-.01.035-.015a.174.174 0 0 0 .037-.023.223.223 0 0 0 .055-.055.443.443 0 0 1 .026-.036l.016-.026M41.337 155.91l53.916-16.94M95.253 138.97l.03-.001c.01 0 .021-.003.03-.007a.069.069 0 0 0 .026-.012.105.105 0 0 0 .053-.075l-.001-.025M95.392 138.85a.152.152 0 0 0-.015-.043M95.392 138.85c.002-.001.002-.002.003-.005M42.269 1.4c-.003-.002-.007-.002-.012-.003l-.02-.002M41.247 155.842a.15.15 0 0 0 .02-.008c.004-.002.007-.005.008-.007.002-.002.002-.004.002-.006M11.028 153.234c0 .004 0 .006.004.01.006.005.02.01.037.013.019.004.04.005.063.008"/>
        <g transform="translate(62.026 161.987)">
            <mask id="k" fill="#fff">
                <use xlink:href="#j"/>
            </mask>
            <path stroke="#FFF" stroke-linecap="round" stroke-linejoin="round" stroke-width=".5" d="M.922.461A.76.76 0 0 1 .92.538.43.43 0 0 1 .87.673.48.48 0 0 1 .83.73C.812.746.794.76.777.772a.176.176 0 0 1-.06.031L.711.806" mask="url(#k)"/>
        </g>
        <path stroke="#FFF" stroke-linecap="round" stroke-linejoin="round" stroke-width=".5" d="M2.948 157.385l.125.021M39.893 159.545l.002-3.254M20.207 154.342l-.195 3.188M11.03 151.649l-7.875 2.219M19.352 155.89l.107-.032M105.917 147.415a.386.386 0 0 1-.048.189.514.514 0 0 1-.038.05.819.819 0 0 1-.049.04.151.151 0 0 1-.054.025c0 .002-.003.002-.004.003M40.065 156.273l-.003 3.273M41.911 155.729l-.001 2.364M42.044 155.687l-.002 2.26M19.91 157.505l.194-3.174M19.512 155.851l.095-1.568M19.542 155.697a.091.091 0 0 0-.02.018.063.063 0 0 0-.01.03v.017M2.75 154.042a.08.08 0 0 1-.018.01c-.09.045-.041.094.038.142.078.047.187.092.354.13.165.036.389.064.61.093M1.222 156.539c-.006.05-.014.101.035.15.08.079.297.152.567.218.14.035.294.066.47.095.181.03.385.053.588.08M1.3 155.54c-.008.048-.014.097.034.145.075.078.285.157.57.224.297.072.673.132 1.051.192M104.643 145.066c.09-.04.182-.08.167-.12-.006-.018-.036-.039-.067-.058M105.917 147.415c.074-.033.146-.068.207-.103.06-.034.106-.072.071-.107l-.01-.009M88.444 143.103l-.086-1.968M41.278 155.8a.83.83 0 0 0 .161-.012"/>
        <path stroke="#BBB" stroke-width="2.6" d="M95.253 127.582c105.7-29.71-44.911-74.287 38.592-71.02"/>
        <g transform="translate(217 28)">
            <use fill="#212B37" stroke="#FFF" stroke-width="2.4" mask="url(#l)" xlink:href="#a"/>
            <path fill="#212B37" stroke="#FFF" stroke-width="1.2" d="M13.682 22.886a6.613 6.613 0 0 1-2.82-5.42 6.613 6.613 0 0 1 2.82-5.42h7.636a6.613 6.613 0 0 1 2.82 5.42 6.613 6.613 0 0 1-2.82 5.42h-7.636z"/>
            <path fill="#FFF" d="M14.483 14.454h1.207v3.614h-1.207z"/>
            <path fill="#FFF" stroke="#FFF" stroke-width="1.2" d="M16.897 19.875c0-.333.267-.602.603-.602a.61.61 0 0 1 .603.602v.602h-1.206v-.602z"/>
            <path fill="#FFF" d="M19.31 14.454h1.207v3.614H19.31z"/>
            <g>
                <path fill="#212B37" stroke="#FFF" stroke-width="1.2" d="M13.682 40.955a6.613 6.613 0 0 1-2.82-5.42 6.613 6.613 0 0 1 2.82-5.421h7.636a6.613 6.613 0 0 1 2.82 5.42 6.613 6.613 0 0 1-2.82 5.42h-7.636z"/>
                <path fill="#FFF" d="M14.483 32.523h1.207v3.614h-1.207z"/>
                <path fill="#FFF" stroke="#FFF" stroke-width="1.2" d="M16.897 37.943c0-.332.267-.602.603-.602a.61.61 0 0 1 .603.602v.602h-1.206v-.602z"/>
                <path fill="#FFF" d="M19.31 32.523h1.207v3.614H19.31z"/>
            </g>
        </g>
    </g>
</svg>
