<svg xmlns="http://www.w3.org/2000/svg" xmlns:xlink="http://www.w3.org/1999/xlink" width="290" height="221" viewBox="0 0 290 221">
    <defs>
        <path id="b" d="M0 0h335.805v221H0z"/>
        <linearGradient id="f" x1="50%" x2="50%" y1="0%" y2="22.888%">
            <stop offset="0%" stop-color="#191919"/>
            <stop offset="100%" stop-color="#383838"/>
        </linearGradient>
        <path id="e" d="M26.973.392h95.753v76.221H26.973z"/>
        <filter id="d" width="200%" height="200%" x="-50%" y="-50%" filterUnits="objectBoundingBox">
            <feOffset dy="1" in="SourceAlpha" result="shadowOffsetOuter1"/>
            <feColorMatrix in="shadowOffsetOuter1" values="0 0 0 0 0 0 0 0 0 0 0 0 0 0 0 0 0 0 0.282665308 0"/>
        </filter>
        <path id="g" d="M.003.019h11.385v11.37H.003z"/>
        <path id="i" d="M.003.017H10V10H.003z"/>
        <path id="k" d="M.003.017H10V10H.003z"/>
        <path id="m" d="M.002.012h7.161v7.151H.002z"/>
        <filter id="o" width="200%" height="200%" x="-50%" y="-50%" filterUnits="objectBoundingBox">
            <feOffset dy="1" in="SourceAlpha" result="shadowOffsetOuter1"/>
            <feGaussianBlur in="shadowOffsetOuter1" result="shadowBlurOuter1" stdDeviation="2.5"/>
            <feColorMatrix in="shadowBlurOuter1" result="shadowMatrixOuter1" values="0 0 0 0 0 0 0 0 0 0 0 0 0 0 0 0 0 0 0.602524909 0"/>
            <feMerge>
                <feMergeNode in="shadowMatrixOuter1"/>
                <feMergeNode in="SourceGraphic"/>
            </feMerge>
        </filter>
        <path id="a" d="M.659.243a.51.51 0 0 0-.36.152.535.535 0 0 0-.15.372c.098 5.936.212 12.035.3 17.19a.53.53 0 0 0 .314.47c.184.077.411.033.554-.106l3.241-3.16c1.054 2.22 2.095 4.443 3.15 6.662.06.122.166.22.293.265a.525.525 0 0 0 .397-.022c1.401-.684 2.577-1.254 3.839-1.869a.521.521 0 0 0 .24-.699c-1.052-2.22-2.108-4.441-3.159-6.661 1.484-.199 2.97-.394 4.453-.593a.53.53 0 0 0 .427-.372.541.541 0 0 0-.165-.547C9.53 7.54 4.865 3.62.995.365A.53.53 0 0 0 .66.243z"/>
        <mask id="p" width="15.984" height="23.79" x="-.958" y="-.958">
            <path fill="#fff" d="M-.809-.715h15.984v23.79H-.809z"/>
            <use xlink:href="#a"/>
        </mask>
    </defs>
    <g fill="none" fill-rule="evenodd" transform="translate(.195)">
        <mask id="c" fill="#fff">
            <use xlink:href="#b"/>
        </mask>
        <g mask="url(#c)">
            <g transform="translate(-62.142 176.8)">
                <use fill="#000" filter="url(#d)" xlink:href="#e"/>
                <use fill="url(#f)" xlink:href="#e"/>
            </g>
        </g>
        <rect width="287.08" height="194.69" x="-13.169" y="-31.017" fill="#B3B3B3" stroke="#C6C6C6" stroke-linejoin="round" stroke-width="31.071" mask="url(#c)" rx="7.887"/>
        <rect width="287.08" height="194.69" x="-13.169" y="-31.017" fill="#838383" stroke="#363636" stroke-linejoin="round" stroke-width="23.901" mask="url(#c)" rx="7.887"/>
        <g mask="url(#c)">
            <path fill="#515E6F" d="M-1.11-160.565h263.662v312.487H-1.11z"/>
            <path fill="#232323" d="M80.758-159.914h182v291h-182z"/>
            <path fill="#000" d="M-.906 130.922h263.663v21H-.906z"/>
            <g opacity=".384" transform="translate(155.35 134.231)">
                <ellipse cx="9.762" cy="9.757" fill="#FFF" rx="1.708" ry="1.708"/>
                <mask id="h" fill="#fff">
                    <use xlink:href="#g"/>
                </mask>
                <ellipse cx="10.539" cy="10.592" stroke="#FFF" stroke-width=".75" mask="url(#h)" rx="9.965" ry="9.965"/>
                <ellipse cx="10.539" cy="10.592" stroke="#FFF" stroke-width=".75" mask="url(#h)" rx="7.198" ry="7.198"/>
                <circle cx="10.539" cy="10.592" r="4.437" stroke="#FFF" stroke-width=".75" mask="url(#h)"/>
            </g>
            <path fill="#FFF" d="M136.734 139.215h1.092v2.922h-1.092z"/>
            <path fill="#FFF" d="M122.231 136.293h14.61v8.766h-14.61z"/>
            <path fill="#000" d="M123.267 137.216h12.534v6.818h-12.534z"/>
            <path fill="#FFF" d="M124.471 138.093h10.183v5.065h-10.183z"/>
            <text font-family=".AppleSystemUIFont" font-size="10" transform="translate(-2.037 -160.578)">
                <tspan x="215.113" y="303.664" fill="#FFF">12:22 PM</tspan>
            </text>
            <g fill="#FFF" fill-rule="nonzero">
                <path d="M196.355 145.764a.44.44 0 0 1-.328-.734 6.755 6.755 0 0 0 1.723-4.512c0-1.668-.612-3.27-1.723-4.511a.44.44 0 0 1 .657-.588 7.635 7.635 0 0 1 1.947 5.099 7.632 7.632 0 0 1-1.948 5.1.438.438 0 0 1-.328.146zM190.26 145.804a.44.44 0 0 1-.31-.13l-2.955-2.954h-1.361c-.607 0-1.1-.493-1.1-1.1v-2.205c0-.607.493-1.1 1.1-1.1h1.392l2.964-2.31a.44.44 0 0 1 .711.347v9.011a.44.44 0 0 1-.44.44zm-4.626-6.608a.219.219 0 0 0-.219.219v2.206c0 .12.098.218.219.218h1.543a.44.44 0 0 1 .312.13l2.331 2.331v-7.046l-2.372 1.849a.438.438 0 0 1-.27.093h-1.544z"/>
                <path d="M194.66 144.452a.44.44 0 0 1-.33-.732 4.836 4.836 0 0 0 1.217-3.202 4.835 4.835 0 0 0-1.216-3.203.44.44 0 0 1 .66-.583 5.715 5.715 0 0 1 1.437 3.786c0 1.392-.51 2.736-1.437 3.786a.44.44 0 0 1-.33.148z"/>
                <path d="M193.011 142.996a.439.439 0 0 1-.33-.732 2.637 2.637 0 0 0 .663-1.746c0-.642-.235-1.262-.663-1.747a.44.44 0 0 1 .66-.583c.57.646.884 1.473.884 2.33a3.52 3.52 0 0 1-.884 2.33.44.44 0 0 1-.33.148z"/>
            </g>
            <g>
                <text fill="#9D9D9D" font-family=".AppleSystemUIFont" font-size="7" transform="translate(90.052 -17)">
                    <tspan x="16.94" y="17.749">Secured</tspan>
                </text>
                <text fill="#FFF" font-family=".AppleSystemUIFont" font-size="8" transform="translate(90.052 49)">
                    <tspan x="16.44" y="8.297">Office Wi-Fi</tspan>
                </text>
                <text fill="#9D9D9D" font-family=".AppleSystemUIFont" font-size="7" transform="translate(90.052 49)">
                    <tspan x="16.94" y="18.031">Secured</tspan>
                </text>
                <g transform="translate(90.052 52.547)">
                    <circle cx="8.572" cy="8.568" r="1.5" fill="#FFF"/>
                    <mask id="j" fill="#fff">
                        <use xlink:href="#i"/>
                    </mask>
                    <circle cx="9.254" cy="9.301" r="8.75" stroke="#FFF" mask="url(#j)"/>
                    <circle cx="9.254" cy="9.301" r="6.32" stroke="#FFF" mask="url(#j)"/>
                    <circle cx="9.254" cy="9.301" r="3.896" stroke="#FFF" mask="url(#j)"/>
                </g>
                <g>
                    <path fill="#525252" d="M80.768 11.664h181.784v32.5H80.768z"/>
                    <text fill="#FFF" font-family=".AppleSystemUIFont" font-size="8" transform="translate(80.552 11.5)">
                        <tspan x="25.94" y="12.664">Your Wi-Fi Name</tspan>
                    </text>
                    <text fill="#9D9D9D" font-family=".AppleSystemUIFont" font-size="7" transform="translate(80.552 11.5)">
                        <tspan x="26.44" y="22.398">Secured</tspan>
                    </text>
                    <g transform="translate(90.052 19.414)">
                        <circle cx="8.572" cy="8.568" r="1.5" fill="#FFF"/>
                        <mask id="l" fill="#fff">
                            <use xlink:href="#k"/>
                        </mask>
                        <circle cx="9.254" cy="9.301" r="8.75" stroke="#FFF" mask="url(#l)"/>
                        <circle cx="9.254" cy="9.301" r="6.32" stroke="#FFF" mask="url(#l)"/>
                        <circle cx="9.254" cy="9.301" r="3.896" stroke="#FFF" mask="url(#l)"/>
                    </g>
                </g>
                <text fill="#9D9D9D" font-family=".AppleSystemUIFont" font-size="8" text-decoration="underline" transform="translate(80.258 -51.078)">
                    <tspan x="8.307" y="140.691">Network Settings</tspan>
                </text>
                <g>
                    <path fill="#2986CC" d="M84.683 99.922h42.5v30h-42.5z"/>
                    <text fill="#FFF" font-family=".AppleSystemUIFont" font-size="6" transform="translate(84.683 99.922)">
                        <tspan x="3.807" y="26.242">Wi-Fi</tspan>
                    </text>
                    <g transform="translate(89.24 102.934)">
                        <ellipse cx="6.14" cy="6.137" fill="#FFF" rx="1.074" ry="1.074"/>
                        <mask id="n" fill="#fff">
                            <use xlink:href="#m"/>
                        </mask>
                        <ellipse cx="6.629" cy="6.662" stroke="#FFF" stroke-width=".75" mask="url(#n)" rx="6.268" ry="6.268"/>
                        <ellipse cx="6.629" cy="6.662" stroke="#FFF" stroke-width=".75" mask="url(#n)" rx="4.527" ry="4.527"/>
                        <ellipse cx="6.629" cy="6.662" stroke="#FFF" stroke-width=".75" mask="url(#n)" rx="2.791" ry="2.791"/>
                    </g>
                </g>
                <g>
                    <path fill="#4F4F4F" d="M129.707 99.922h42.5v30h-42.5z"/>
                    <text fill="#FFF" font-family=".AppleSystemUIFont" font-size="5" transform="translate(129.707 99.922)">
                        <tspan x="3.807" y="26.242">Airplane mode</tspan>
                    </text>
                    <path fill="#FFF" fill-rule="nonzero" d="M143.1 106.017a.941.941 0 0 0-.938-.937h-2.157l-1.402-2.902a.208.208 0 0 0-.188-.117h-1.25a.208.208 0 0 0-.198.26l.765 2.863h-2.343l-.667-.761a.208.208 0 0 0-.159-.072h-.625a.208.208 0 0 0-.205.238l.205 1.428-.205 1.428a.208.208 0 0 0 .205.237h.625c.061.001.12-.025.16-.071l.666-.761h2.343l-.765 2.862a.208.208 0 0 0 .198.26h1.25c.08.001.153-.044.188-.117l1.402-2.901h2.157a.941.941 0 0 0 .937-.937zm-.417 0c0 .275-.226.52-.52.52h-2.29a.208.208 0 0 0-.186.117l-1.402 2.902h-.85l.765-2.863a.208.208 0 0 0-.202-.26h-2.706a.208.208 0 0 0-.156.072l-.667.76h-.29l.176-1.219a.208.208 0 0 0 0-.059l-.176-1.22h.29l.667.762c.039.045.096.071.156.071h2.706a.208.208 0 0 0 .202-.26l-.765-2.863h.85l1.402 2.902a.208.208 0 0 0 .185.117h2.29c.295 0 .52.245.52.52z"/>
                </g>
            </g>
            <g filter="url(#o)" transform="translate(214.697 27.922)">
                <use fill="#000" xlink:href="#a"/>
                <use stroke="#FFF" stroke-width="1.917" mask="url(#p)" xlink:href="#a"/>
            </g>
        </g>
    </g>
</svg>
